<svg viewBox="0 0 24 24" fill="currentColor" xmlns="http://www.w3.org/2000/svg">
  <path d="M12 .296C5.37.296 0 5.666 0 12.296c0 5.29 3.438 9.773 8.205 11.366.6.11.82-.26.82-.577v-2.165c-3.338.727-4.033-1.61-4.033-1.61-.546-1.39-1.333-1.76-1.333-1.76-1.09-.746.083-.73.083-.73 1.205.083 1.84 1.24 1.84 1.24 1.07 1.833 2.808 1.303 3.493.996.107-.775.42-1.303.763-1.603-2.665-.3-5.467-1.333-5.467-5.93 0-1.31.47-2.383 1.237-3.223-.124-.303-.536-1.523.118-3.176 0 0 1.008-.323 3.3 1.23a11.5 11.5 0 013.004-.404c1.02.004 2.047.137 3.004.404 2.29-1.553 3.296-1.23 3.296-1.23.656 1.653.244 2.873.12 3.176.77.84 1.236 1.913 1.236 3.223 0 4.61-2.806 5.625-5.48 5.92.432.373.816 1.103.816 2.223v3.293c0 .32.216.694.824.576C20.565 22.065 24 17.582 24 12.296 24 5.666 18.627.296 12 .296z"/>
</svg>
