<svg xmlns="http://www.w3.org/2000/svg" viewBox="0 0 48 48">
  <path fill="#EA4335" d="M24 9.5c3.94 0 7.08 1.62 9.26 3.07l6.83-6.83C35.34 2.13 30.13 0 24 0 14.7 0 6.63 5.53 2.56 13.56l7.95 6.18C12.34 13.74 17.69 9.5 24 9.5z"/>
  <path fill="#34A853" d="M46.08 24.6c0-1.45-.13-2.84-.37-4.2H24v8.07h12.37c-.55 2.88-2.23 5.31-4.73 6.95l7.35 5.7c4.3-3.97 6.79-9.84 6.79-16.52z"/>
  <path fill="#4A90E2" d="M24 48c6.48 0 11.9-2.14 15.87-5.84l-7.35-5.7c-2.04 1.37-4.65 2.18-8.52 2.18-6.53 0-12.06-4.41-14.03-10.34l-7.96 6.15C6.58 42.45 14.64 48 24 48z"/>
  <path fill="#FBBC05" d="M9.97 28.3c-.46-1.37-.72-2.83-.72-4.3 0-1.48.26-2.93.72-4.3l-7.95-6.18C.73 16.32 0 20.07 0 24s.73 7.68 2.02 10.47l7.95-6.17z"/>
</svg>
